<?xml version="1.0" standalone="no"?>
<!DOCTYPE svg PUBLIC "-//W3C//DTD SVG 20010904//EN"
 "http://www.w3.org/TR/2001/REC-SVG-20010904/DTD/svg10.dtd">
<svg version="1.0" xmlns="http://www.w3.org/2000/svg"
 width="2048.000000pt" height="2048.000000pt" viewBox="0 0 2048.000000 2048.000000"
 preserveAspectRatio="xMidYMid meet">
<metadata>
Created by potrace 1.14, written by Peter Selinger 2001-2017
</metadata>
<g transform="translate(0.000000,2048.000000) scale(0.100000,-0.100000)"
fill="#000000" stroke="none">
<path d="M9935 20454 c-639 -28 -1116 -82 -1645 -185 -2351 -461 -4437 -1707
-5958 -3557 -284 -345 -629 -838 -864 -1232 -430 -723 -766 -1480 -1004 -2268
-534 -1767 -584 -3625 -144 -5412 718 -2914 2692 -5373 5385 -6705 832 -411
1669 -694 2585 -874 1895 -371 3883 -190 5686 519 1626 640 3057 1682 4172
3038 284 345 629 838 864 1232 430 722 764 1478 1004 2268 542 1790 585 3673
124 5487 -622 2448 -2135 4581 -4240 5980 -399 265 -708 443 -1125 650 -1237
612 -2525 954 -3935 1045 -163 11 -769 20 -905 14z m-297 -5154 c391 -42 677
-163 889 -377 51 -52 85 -79 88 -71 2 7 25 96 50 198 25 102 50 202 56 223
l10 37 1630 0 c1548 0 1630 -1 1625 -17 -3 -10 -271 -1080 -595 -2378 -325
-1298 -594 -2370 -597 -2382 l-6 -23 677 0 c639 0 676 -1 671 -17 -13 -45
-178 -709 -179 -720 0 -7 -4 -13 -8 -13 -5 0 -7 -6 -4 -12 4 -13 -29 -82 -78
-161 -15 -25 -30 -55 -32 -67 -2 -13 -12 -32 -22 -43 -10 -11 -13 -18 -7 -14
6 3 1 -13 -10 -37 -12 -24 -25 -41 -30 -38 -5 3 -6 1 -3 -5 7 -11 -27 -84 -61
-130 -29 -40 -62 -115 -56 -125 3 -4 0 -8 -6 -8 -6 0 -8 -4 -5 -10 3 -5 1 -10
-4 -10 -6 0 -10 -3 -9 -7 5 -17 -55 -132 -65 -126 -5 3 -7 1 -3 -5 9 -14 -14
-63 -27 -55 -6 3 -7 1 -3 -5 4 -7 -4 -27 -17 -44 -24 -32 -43 -76 -39 -90 1
-5 -3 -8 -9 -8 -5 0 -7 -4 -4 -10 3 -5 1 -10 -6 -10 -7 0 -10 -3 -6 -6 6 -7
-72 -171 -107 -224 -40 -61 -67 -120 -60 -132 5 -7 3 -8 -6 -3 -10 6 -12 4 -7
-7 3 -9 -2 -23 -11 -31 -22 -19 -72 -28 -72 -13 0 8 -2 8 -8 0 -4 -7 -36 -15
-72 -19 -36 -4 -76 -9 -90 -11 -14 -2 -56 -6 -95 -10 -38 -3 -74 -9 -79 -12
-5 -2 -23 -6 -40 -8 -17 -1 -53 -5 -81 -9 -27 -4 -60 -7 -72 -6 -13 0 -23 -3
-23 -8 0 -5 -8 -7 -19 -4 -10 2 -45 -1 -77 -7 -87 -16 -126 -22 -157 -22 -18
-1 -24 -4 -16 -9 16 -9 -66 -23 -143 -24 -31 0 -54 -3 -52 -6 4 -8 -104 -23
-168 -23 -25 -1 -42 -4 -37 -7 8 -5 -107 -21 -238 -33 -13 -2 -26 -5 -29 -9
-3 -3 -12 -3 -19 -1 -7 3 -39 0 -72 -6 -32 -6 -89 -13 -128 -17 -38 -3 -71 -8
-73 -12 -1 -4 -20 -5 -42 -3 -26 3 -40 0 -40 -8 0 -6 -4 -9 -8 -6 -13 8 -155
-14 -170 -26 -7 -6 -15 -8 -19 -4 -3 3 0 6 7 6 7 0 10 3 7 7 -4 3 -16 -2 -26
-11 -15 -14 -39 -18 -104 -19 -47 -1 -80 -5 -73 -9 6 -5 0 -8 -14 -8 -22 -1
-11 -14 79 -100 l104 -100 -1122 0 c-616 0 -1121 3 -1121 8 0 4 16 67 34 140
19 72 33 132 31 132 -2 0 -58 -29 -126 -64 -220 -114 -444 -176 -748 -206
-139 -14 -2946 -14 -3096 0 -354 33 -625 133 -840 311 -191 157 -319 394 -349
644 -12 99 -7 292 9 391 13 74 351 1456 426 1737 l10 37 105 0 c93 0 105 2
100 16 -3 8 -16 52 -28 97 -19 72 -22 108 -23 282 0 158 4 218 18 285 47 215
631 2531 662 2625 171 511 563 873 1097 1014 140 37 266 61 377 71 136 12
3015 12 3129 0z m4653 -4867 c-12 -20 -14 -14 -5 12 4 9 9 14 11 11 3 -2 0
-13 -6 -23z m49 -8 c0 -5 -5 -3 -10 5 -5 8 -10 20 -10 25 0 6 5 3 10 -5 5 -8
10 -19 10 -25z m-60 -23 c0 -5 -7 -17 -15 -28 -14 -18 -14 -17 -4 9 12 27 19
34 19 19z m191 -239 c13 -16 12 -17 -3 -4 -10 7 -18 15 -18 17 0 8 8 3 21 -13z
m-355 -90 c-8 -15 -15 -25 -16 -21 0 12 23 58 27 54 3 -2 -2 -17 -11 -33z
m413 -38 c0 -5 -8 6 -19 25 -11 19 -19 40 -19 45 0 6 8 -6 19 -25 11 -19 19
-39 19 -45z m170 -340 c0 -5 -6 1 -14 15 -8 14 -14 30 -14 35 0 6 6 -1 14 -15
8 -14 14 -29 14 -35z m187 -366 c8 -17 14 -34 12 -38 -2 -4 -12 12 -24 35 -23
48 -13 50 12 3z m-442 -414 c71 -143 220 -445 332 -672 l204 -411 57 -7 c32
-4 128 -17 213 -30 85 -14 254 -38 375 -55 121 -18 364 -54 541 -81 177 -27
333 -49 348 -49 14 0 26 -4 26 -8 0 -4 -44 -50 -97 -101 -155 -149 -630 -611
-840 -818 l-191 -188 14 -90 c8 -49 34 -207 59 -350 99 -566 193 -1115 190
-1115 -2 0 -195 100 -285 147 -132 70 -318 167 -425 223 -207 108 -326 171
-430 225 -60 32 -144 75 -185 97 l-74 38 -56 -28 c-30 -16 -113 -60 -185 -97
-71 -37 -177 -93 -235 -123 -212 -111 -337 -176 -430 -225 -206 -108 -492
-257 -495 -257 -2 0 37 237 81 485 24 138 51 297 60 355 9 58 35 213 59 345
24 132 48 270 53 308 l9 67 -256 249 c-141 137 -312 304 -381 371 -69 67 -207
201 -307 298 -101 97 -183 180 -183 183 0 3 27 9 61 12 33 4 187 27 342 51
155 24 311 47 347 51 36 3 207 28 380 55 173 26 341 51 373 55 l58 7 255 516
c141 284 299 604 351 710 l96 193 21 -38 c12 -21 80 -155 150 -298z m625 30
c0 -5 -6 1 -14 15 -8 14 -14 30 -14 35 0 6 6 -1 14 -15 8 -14 14 -29 14 -35z
m186 -368 c8 -20 13 -37 10 -37 -5 0 -35 67 -35 78 0 11 10 -5 25 -41z m120
-237 c10 -11 16 -20 13 -20 -3 0 -13 9 -23 20 -10 11 -16 20 -13 20 3 0 13 -9
23 -20z m1058 -161 c89 -12 167 -25 172 -31 6 -6 5 -7 -5 -4 -8 3 -87 15 -174
26 -87 11 -166 25 -175 31 -14 9 -13 10 2 5 11 -3 92 -16 180 -27z m237 -39
c18 -12 2 -12 -25 0 -13 6 -15 9 -5 9 8 0 22 -4 30 -9z m1013 -145 c32 -4 57
-9 54 -11 -6 -7 -201 17 -210 26 -5 4 16 4 45 -1 29 -4 79 -10 111 -14z m27
-48 c0 -2 -10 -12 -22 -23 l-23 -19 19 23 c18 21 26 27 26 19z m-140 -130 c0
-2 -10 -12 -22 -23 l-23 -19 19 23 c18 21 26 27 26 19z m-6090 -412 c13 -14
21 -25 18 -25 -2 0 -15 11 -28 25 -13 14 -21 25 -18 25 2 0 15 -11 28 -25z
m5690 22 c0 -2 -12 -14 -27 -28 l-28 -24 24 28 c23 25 31 32 31 24z m-5289
-414 c13 -16 12 -17 -3 -4 -17 13 -22 21 -14 21 2 0 10 -8 17 -17z m419 -400
c0 -7 -39 17 -46 28 -3 6 5 3 20 -6 14 -10 26 -19 26 -22z m4065 27 c-3 -5
-16 -15 -28 -21 -19 -9 -19 -8 3 10 28 23 34 26 25 11z m-145 -133 c0 -2 -17
-19 -37 -38 l-38 -34 34 38 c33 34 41 42 41 34z m-3774 -39 l29 -33 -32 29
c-31 28 -38 36 -30 36 2 0 16 -15 33 -32z m151 -195 c-3 -10 -5 -4 -5 12 0 17
2 24 5 18 2 -7 2 -21 0 -30z m3430 0 c-3 -10 -5 -4 -5 12 0 17 2 24 5 18 2 -7
2 -21 0 -30z m141 -778 c-3 -3 -9 2 -12 12 -6 14 -5 15 5 6 7 -7 10 -15 7 -18z
m-3712 -33 c-3 -5 -14 -70 -25 -145 -11 -76 -25 -145 -31 -155 -10 -15 -11
-15 -5 3 4 11 15 80 26 154 19 129 24 151 35 151 3 0 3 -4 0 -8z m3729 -69 l4
-48 -9 44 c-5 23 -12 53 -15 65 -5 18 -4 18 5 4 5 -9 12 -38 15 -65z m23 -163
c0 -16 -3 -10 -9 15 -4 22 -8 54 -7 70 0 22 3 19 9 -15 4 -25 7 -56 7 -70z
m21 -75 c0 -5 -4 -3 -9 5 -5 8 -9 22 -9 30 0 16 17 -16 18 -35z m-2099 -185
c-14 -11 -29 -20 -35 -20 -5 0 4 9 20 20 38 25 48 25 15 0z m457 -47 c-5 -4
-98 45 -112 59 -5 5 18 -5 53 -23 34 -18 61 -34 59 -36z m-523 12 c-10 -8 -23
-15 -28 -15 -6 0 -1 7 10 15 10 8 23 15 28 15 6 0 1 -7 -10 -15z m-285 -148
c-14 -12 -119 -68 -119 -64 0 7 102 66 114 67 5 0 7 -2 5 -3z m1128 -27 c31
-16 51 -30 44 -30 -6 0 -35 13 -64 30 -68 39 -53 39 20 0z m-1557 -200 c-19
-11 -39 -19 -45 -19 -5 0 6 8 25 19 19 11 40 19 45 19 6 0 -6 -8 -25 -19z
m1966 -18 c-5 -4 -66 26 -66 33 0 3 16 -3 35 -12 19 -9 33 -18 31 -21z m-3057
-217 c-9 -55 -18 -88 -18 -74 -1 39 26 186 33 177 2 -2 -5 -48 -15 -103z
m4114 -37 c5 -48 4 -53 -2 -23 -14 64 -22 145 -12 113 5 -14 11 -55 14 -90z
m-4143 -148 c-16 -59 -19 -46 -6 25 6 33 12 50 14 38 2 -12 -2 -40 -8 -63z
m4175 -38 c-6 -7 -25 72 -24 98 0 14 7 -2 14 -35 7 -33 11 -62 10 -63z m-430
90 c-3 -3 -11 0 -18 7 -9 10 -8 11 6 5 10 -3 15 -9 12 -12z m-3320 -2 c-11 -5
-27 -9 -35 -9 -9 0 -8 4 5 9 11 5 27 9 35 9 9 0 8 -4 -5 -9z m3366 -17 c13
-17 13 -17 -6 -3 -11 8 -22 16 -24 17 -2 2 0 3 6 3 6 0 17 -8 24 -17z m392
-113 c3 -11 1 -18 -4 -14 -5 3 -9 12 -9 20 0 20 7 17 13 -6z m-4093 -45 c-14
-8 -29 -14 -35 -14 -5 0 1 6 15 14 14 8 30 14 35 14 6 0 -1 -6 -15 -14z m4000
0 c14 -8 21 -14 15 -14 -5 0 -21 6 -35 14 -14 8 -20 14 -15 14 6 0 21 -6 35
-14z"/>
<path d="M6580 14729 c-533 -47 -883 -298 -1014 -729 -14 -47 -163 -636 -332
-1310 -283 -1132 -307 -1233 -312 -1333 -8 -190 28 -297 138 -408 94 -95 219
-151 410 -186 84 -15 195 -17 978 -20 766 -3 882 -6 882 -19 0 -8 -43 -187
-96 -399 l-96 -385 -254 0 c-140 0 -254 3 -254 8 0 4 22 94 49 200 l49 192
-1041 -2 -1041 -3 -143 -570 c-168 -672 -183 -741 -183 -851 0 -163 40 -262
146 -364 106 -102 277 -166 508 -189 146 -15 2822 -15 3003 -1 258 21 488 92
648 200 173 117 311 307 373 515 34 113 619 2462 636 2554 42 220 4 375 -121
500 -97 96 -198 143 -413 187 -77 17 -168 19 -977 22 -491 1 -893 5 -893 8 0
9 181 729 191 762 l11 32 249 0 c218 0 249 -2 249 -15 0 -13 -70 -303 -86
-357 -5 -17 49 -18 1035 -18 l1040 0 10 38 c87 327 303 1223 311 1290 31 256
-59 444 -265 549 -103 53 -193 77 -365 99 -95 12 -355 14 -1525 13 -775 -1
-1453 -5 -1505 -10z"/>
<path d="M11175 14728 c-2 -7 -360 -1437 -795 -3178 -435 -1741 -793 -3173
-796 -3182 -5 -17 81 -18 1710 -18 l1715 0 10 38 c6 20 95 378 199 795 l190
757 -674 0 c-371 0 -674 3 -674 8 0 4 270 1084 599 2400 l599 2392 -1040 0
c-822 0 -1040 -3 -1043 -12z"/>
<path d="M12283 8193 c9 -2 23 -2 30 0 6 3 -1 5 -18 5 -16 0 -22 -2 -12 -5z"/>
<path d="M12228 8183 c7 -3 16 -2 19 1 4 3 -2 6 -13 5 -11 0 -14 -3 -6 -6z"/>
<path d="M11053 8013 c9 -2 23 -2 30 0 6 3 -1 5 -18 5 -16 0 -22 -2 -12 -5z"/>
<path d="M10998 8003 c7 -3 16 -2 19 1 4 3 -2 6 -13 5 -11 0 -14 -3 -6 -6z"/>
</g>
</svg>
